<?xml version="1.0" encoding="utf-8"?>
<!-- Generator: Adobe Illustrator 24.3.0, SVG Export Plug-In . SVG Version: 6.00 Build 0)  -->
<svg version="1.1" id="レイヤー_1" xmlns="http://www.w3.org/2000/svg" xmlns:xlink="http://www.w3.org/1999/xlink" x="0px"
	 y="0px" viewBox="0 0 1280 800" style="enable-background:new 0 0 1280 800;" xml:space="preserve">
<style type="text/css">
	.st0{fill:#FFFFFF;}
	.st1{fill:#CDAAA0;}
</style>
<rect class="st0" width="1280" height="800"/>
<g>
	<g>
		<path class="st1" d="M514.9,320.5v58.7h17.4v3.7h-21.5v-62.5L514.9,320.5L514.9,320.5z"/>
		<path class="st1" d="M550.5,320.5v39.1c0,5.9,0.3,9.7,2.6,13.5c3.7,5.9,10.5,7.2,14.5,7.2s10.9-1.3,14.5-7.2
			c2.3-3.7,2.6-7.6,2.6-13.5v-39.1h4.1v39.1c0,6.8-0.4,11.3-3.6,16c-4.7,6.8-12.1,8.4-17.7,8.4c-5.6,0-13-1.6-17.7-8.4
			c-3.2-4.7-3.6-9.2-3.6-16v-39.1H550.5z"/>
		<path class="st1" d="M660,333.3c-5.3-6.3-13-9.8-21.1-9.8c-16,0-28,12.8-28,28.7c0,18.5,15.5,28.2,28.1,28.2
			c6.3,0,14.6-2.5,21-9.5v5.4c-6.4,5.6-14.1,7.8-20.8,7.8c-18.7,0-32.6-14.7-32.6-32.1c0-18,14.4-32.2,32.4-32.2
			c11.9,0,19.1,6.4,21,8.2V333.3z"/>
		<path class="st1" d="M681.8,349.9l29.5-29.4h5.4l-30.3,29.9l32,32.6h-5.6l-29.4-29.8l-1.7,1.6V383h-4.1v-62.5h4.1L681.8,349.9
			L681.8,349.9z"/>
		<path class="st1" d="M743.9,356.3l-20.5-35.8h4.7l18,31.6l18.4-31.6h4.7l-21.1,35.8V383H744L743.9,356.3L743.9,356.3z"/>
	</g>
	<g>
		<path class="st1" d="M537,477.7l-20.2-29.5h-1.9v29.5h-4.1v-62.5h9c4.8,0,9.1,0.4,13.2,3.2c4.9,3.4,6.5,8.5,6.5,13.4
			c0,6.2-2.7,12.6-10.5,15.2c-3.3,1.1-6.3,1.2-7.7,1.2l20.4,29.5L537,477.7L537,477.7z M514.9,444.4h6c8.9,0,14.2-4.7,14.2-12.7
			c0-6.3-3.1-9.6-5.5-10.9c-2.6-1.5-7.1-1.9-9.6-1.9h-5.2L514.9,444.4L514.9,444.4z"/>
		<path class="st1" d="M562.9,415.2v62.5h-4.1v-62.5H562.9z"/>
		<path class="st1" d="M581.4,415.2l18.4,53.2l17.8-53.2h4.5l-22.3,65l-22.9-65H581.4z"/>
		<path class="st1" d="M666,419h-25.9v22.7h25.3v3.7h-25.3V474H666v3.7h-30v-62.5h30V419z"/>
		<path class="st1" d="M709.9,477.7l-20.2-29.5h-1.9v29.5h-4.1v-62.5h9c4.8,0,9.1,0.4,13.2,3.2c4.9,3.4,6.5,8.5,6.5,13.4
			c0,6.2-2.7,12.6-10.5,15.2c-3.3,1.1-6.3,1.2-7.7,1.2l20.4,29.5L709.9,477.7L709.9,477.7z M687.8,444.4h6c8.9,0,14.2-4.7,14.2-12.7
			c0-6.3-3.1-9.6-5.5-10.9c-2.6-1.5-7.1-1.9-9.6-1.9h-5.2L687.8,444.4L687.8,444.4z"/>
		<g>
			<circle class="st1" cx="734.9" cy="472.2" r="4"/>
		</g>
	</g>
</g>
</svg>
