<?xml version="1.0" encoding="utf-8"?>
<!-- Generator: Adobe Illustrator 24.3.0, SVG Export Plug-In . SVG Version: 6.00 Build 0)  -->
<svg version="1.1" id="レイヤー_1" xmlns="http://www.w3.org/2000/svg" xmlns:xlink="http://www.w3.org/1999/xlink" x="0px"
	 y="0px" viewBox="0 0 120 120" style="enable-background:new 0 0 120 120;" xml:space="preserve">
<style type="text/css">
	.st0{opacity:0.8;}
	.st1{fill:#CDAAA0;}
</style>
<g id="bg">
</g>
<g class="st0">
	<g>
		<path class="st1" d="M39.7,6.8V95h6.6v3.8H35.4v-92C35.4,6.8,39.7,6.8,39.7,6.8z"/>
		<path class="st1" d="M45,14.4h5.6c8.5,0,16,3.1,22.4,9.4s9.7,13.6,9.7,22.1s-3.3,15.8-9.9,22s-13.6,9.3-21.1,9.3h-0.9l33.9,35.7
			H79L49.2,81.7V110H45V14.4z M49.2,73.4h2.4c7.1,0,13.3-2.7,18.8-8.1s8.1-11.9,8.1-19.3s-2.8-13.9-8.4-19.4s-12-8.3-19.2-8.3h-1.7
			C49.2,18.3,49.2,73.4,49.2,73.4z"/>
	</g>
	<path class="st1" d="M60,3.8c30.9,0,56,25.1,56,56s-25.1,56-56,56S4,90.7,4,59.8S29.1,3.8,60,3.8 M60,0.9c-32.6,0-59,26.4-59,59
		s26.4,59,59,59s59-26.4,59-59S92.6,0.9,60,0.9L60,0.9z"/>
	<circle class="st1" cx="91.4" cy="89.4" r="8.3"/>
</g>
</svg>
